<svg xmlns="http://www.w3.org/2000/svg" width="510" height="110" viewBox="0 0 510 110">
  <g transform="translate(23 21)">
    <path fill="currentColor" d="m30.51499 17 17.93103 17.7264643-17.93103 17.7262714-5.51499-5.4543857 12.41604-12.2718857-12.41604-12.2722329z"/>
    <path fill="currentColor" d="M58-3c8.2842712 0 15 6.71572875 15 15v46c0 8.2842712-6.7157288 15-15 15h-46c-8.28427125 0-15-6.7157288-15-15v-46c0-8.28427125 6.71572875-15 15-15zm0 6h-46c-4.97056275 0-9 4.02943725-9 9v46c0 4.9705627 4.02943725 9 9 9h46c4.9705627 0 9-4.0294373 9-9v-46c0-4.97056275-4.0294373-9-9-9zM92.695 56c.988 0 1.805-.3325 2.451-.9975s.969-1.4915.969-2.4795v-5.985l2.793-2.565 10.26 10.83c.684.76 1.52 1.14 2.508 1.14.836 0 1.6245-.323 2.3655-.969s1.1115-1.444 1.1115-2.394-.361-1.805-1.083-2.565l-9.975-10.83 8.607-7.923c.912-.798 1.368-1.653 1.368-2.565 0-.722-.3325-1.4345-.9975-2.1375s-1.4155-1.0545-2.2515-1.0545c-.95 0-1.786.361-2.508 1.083l-12.198 11.799v-21.09c0-.988-.323-1.8145-.969-2.4795s-1.463-.9975-2.451-.9975-1.805.3325-2.451.9975-.969 1.4915-.969 2.4795v35.226c0 .988.323 1.8145.969 2.4795s1.463.9975 2.451.9975zm38.983.57c2.85 0 5.4625-.665 7.8375-1.995s4.2465-3.2015 5.6145-5.6145 2.052-5.1395 2.052-8.1795-.684-5.7665-2.052-8.1795-3.2395-4.294-5.6145-5.643-4.9875-2.0235-7.8375-2.0235c-2.888 0-5.51.6745-7.866 2.0235s-4.218 3.23-5.586 5.643-2.052 5.1395-2.052 8.1795.684 5.7665 2.052 8.1795 3.23 4.2845 5.586 5.6145 4.978 1.995 7.866 1.995zm0-6.27c-1.596 0-3.0495-.399-4.3605-1.197s-2.356-1.919-3.135-3.363-1.1685-3.097-1.1685-4.959.3895-3.5245 1.1685-4.9875 1.824-2.5935 3.135-3.3915 2.7645-1.197 4.3605-1.197 3.0495.399 4.3605 1.197 2.356 1.9285 3.135 3.3915 1.1685 3.1255 1.1685 4.9875-.3895 3.515-1.1685 4.959-1.824 2.565-3.135 3.363-2.7645 1.197-4.3605 1.197zm32.998 6.27c2.85 0 5.4625-.665 7.8375-1.995s4.2465-3.2015 5.6145-5.6145 2.052-5.1395 2.052-8.1795-.684-5.7665-2.052-8.1795-3.2395-4.294-5.6145-5.643-4.9875-2.0235-7.8375-2.0235c-2.888 0-5.51.6745-7.866 2.0235s-4.218 3.23-5.586 5.643-2.052 5.1395-2.052 8.1795.684 5.7665 2.052 8.1795 3.23 4.2845 5.586 5.6145 4.978 1.995 7.866 1.995zm0-6.27c-1.596 0-3.0495-.399-4.3605-1.197s-2.356-1.919-3.135-3.363-1.1685-3.097-1.1685-4.959.3895-3.5245 1.1685-4.9875 1.824-2.5935 3.135-3.3915 2.7645-1.197 4.3605-1.197 3.0495.399 4.3605 1.197 2.356 1.9285 3.135 3.3915 1.1685 3.1255 1.1685 4.9875-.3895 3.515-1.1685 4.959-1.824 2.565-3.135 3.363-2.7645 1.197-4.3605 1.197zm31.516 6.27c1.786 0 3.4865-.3895 5.1015-1.1685s2.8975-1.7195 3.8475-2.8215c.038.988.3705 1.805.9975 2.451s1.4345.969 2.4225.969 1.805-.3325 2.451-.9975.969-1.4915.969-2.4795v-35.226c0-1.026-.323-1.862-.969-2.508s-1.463-.969-2.451-.969-1.805.3325-2.451.9975-.969 1.4915-.969 2.4795v11.172c-1.102-1.026-2.451-1.8715-4.047-2.5365s-3.306-.9975-5.13-.9975c-2.546 0-4.8735.6745-6.9825 2.0235s-3.7715 3.23-4.9875 5.643-1.824 5.1395-1.824 8.1795.6175 5.757 1.8525 8.151 2.9165 4.2655 5.0445 5.6145 4.503 2.0235 7.125 2.0235zm.855-6.27c-2.47 0-4.4745-.9025-6.0135-2.7075s-2.3085-4.0755-2.3085-6.8115.779-5.016 2.337-6.84 3.553-2.736 5.985-2.736c2.47 0 4.484.912 6.042 2.736s2.337 4.104 2.337 6.84-.779 5.0065-2.337 6.8115-3.572 2.7075-6.042 2.7075zm23.308-28.5c1.33 0 2.2705-.1995 2.8215-.5985s.8265-1.1495.8265-2.2515v-1.083c0-1.064-.266-1.805-.798-2.223s-1.463-.627-2.793-.627c-1.254 0-2.166.209-2.736.627s-.855 1.159-.855 2.223v1.083c0 1.064.266 1.805.798 2.223s1.444.627 2.736.627zm.057 34.2c.988 0 1.805-.3325 2.451-.9975s.969-1.4915.969-2.4795v-23.541c0-.988-.323-1.8145-.969-2.4795s-1.463-.9975-2.451-.9975-1.805.3325-2.451.9975-.969 1.4915-.969 2.4795v23.541c0 .988.323 1.8145.969 2.4795s1.463.9975 2.451.9975zm12.421 0c.988 0 1.805-.3325 2.451-.9975s.969-1.4915.969-2.4795v-5.985l2.793-2.565 10.26 10.83c.684.76 1.52 1.14 2.508 1.14.836 0 1.6245-.323 2.3655-.969s1.1115-1.444 1.1115-2.394-.361-1.805-1.083-2.565l-9.975-10.83 8.607-7.923c.912-.798 1.368-1.653 1.368-2.565 0-.722-.3325-1.4345-.9975-2.1375s-1.4155-1.0545-2.2515-1.0545c-.95 0-1.786.361-2.508 1.083l-12.198 11.799v-21.09c0-.988-.323-1.8145-.969-2.4795s-1.463-.9975-2.451-.9975-1.805.3325-2.451.9975-.969 1.4915-.969 2.4795v35.226c0 .988.323 1.8145.969 2.4795s1.463.9975 2.451.9975zm30.091 0c.988 0 1.8145-.3325 2.4795-.9975s.9975-1.4915.9975-2.4795v-35.226c0-.988-.323-1.8145-.969-2.4795s-1.444-.9975-2.394-.9975c-.988 0-1.8145.3325-2.4795.9975s-.9975 1.4915-.9975 2.4795v35.226c0 .988.323 1.8145.969 2.4795s1.444.9975 2.394.9975zm12.421-34.2c1.33 0 2.2705-.1995 2.8215-.5985s.8265-1.1495.8265-2.2515v-1.083c0-1.064-.266-1.805-.798-2.223s-1.463-.627-2.793-.627c-1.254 0-2.166.209-2.736.627s-.855 1.159-.855 2.223v1.083c0 1.064.266 1.805.798 2.223s1.444.627 2.736.627zm.057 34.2c.988 0 1.805-.3325 2.451-.9975s.969-1.4915.969-2.4795v-23.541c0-.988-.323-1.8145-.969-2.4795s-1.463-.9975-2.451-.9975-1.805.3325-2.451.9975-.969 1.4915-.969 2.4795v23.541c0 .988.323 1.8145.969 2.4795s1.463.9975 2.451.9975zm31.573 0c.988 0 1.805-.3325 2.451-.9975s.969-1.4915.969-2.4795v-14.592c0-4.066-.741-7.2485-2.223-9.5475s-4.161-3.4485-8.037-3.4485c-1.976 0-3.7905.494-5.4435 1.482s-2.9925 2.166-4.0185 3.534v-.969c0-.988-.323-1.8145-.969-2.4795s-1.463-.9975-2.451-.9975-1.805.3325-2.451.9975-.969 1.4915-.969 2.4795v23.541c0 .988.323 1.8145.969 2.4795s1.463.9975 2.451.9975 1.805-.3325 2.451-.9975.969-1.4915.969-2.4795v-14.592c0-1.938.627-3.5435 1.881-4.8165s2.983-1.9095 5.187-1.9095c2.128 0 3.629.5985 4.503 1.7955s1.311 2.8405 1.311 4.9305v14.592c0 .988.323 1.8145.969 2.4795s1.463.9975 2.451.9975zm11.794-34.2c1.33 0 2.2705-.1995 2.8215-.5985s.8265-1.1495.8265-2.2515v-1.083c0-1.064-.266-1.805-.798-2.223s-1.463-.627-2.793-.627c-1.254 0-2.166.209-2.736.627s-.855 1.159-.855 2.223v1.083c0 1.064.266 1.805.798 2.223s1.444.627 2.736.627zm.057 34.2c.988 0 1.805-.3325 2.451-.9975s.969-1.4915.969-2.4795v-23.541c0-.988-.323-1.8145-.969-2.4795s-1.463-.9975-2.451-.9975-1.805.3325-2.451.9975-.969 1.4915-.969 2.4795v23.541c0 .988.323 1.8145.969 2.4795s1.463.9975 2.451.9975zm12.421 0c.988 0 1.805-.3325 2.451-.9975s.969-1.4915.969-2.4795v-5.985l2.793-2.565 10.26 10.83c.684.76 1.52 1.14 2.508 1.14.836 0 1.6245-.323 2.3655-.969s1.1115-1.444 1.1115-2.394-.361-1.805-1.083-2.565l-9.975-10.83 8.607-7.923c.912-.798 1.368-1.653 1.368-2.565 0-.722-.3325-1.4345-.9975-2.1375s-1.4155-1.0545-2.2515-1.0545c-.95 0-1.786.361-2.508 1.083l-12.198 11.799v-21.09c0-.988-.323-1.8145-.969-2.4795s-1.463-.9975-2.451-.9975-1.805.3325-2.451.9975-.969 1.4915-.969 2.4795v35.226c0 .988.323 1.8145.969 2.4795s1.463.9975 2.451.9975zm30.148 0c.988 0 1.805-.3325 2.451-.9975s.969-1.4915.969-2.4795v-5.985l2.793-2.565 10.26 10.83c.684.76 1.52 1.14 2.508 1.14.836 0 1.6245-.323 2.3655-.969s1.1115-1.444 1.1115-2.394-.361-1.805-1.083-2.565l-9.975-10.83 8.607-7.923c.912-.798 1.368-1.653 1.368-2.565 0-.722-.3325-1.4345-.9975-2.1375s-1.4155-1.0545-2.2515-1.0545c-.95 0-1.786.361-2.508 1.083l-12.198 11.799v-21.09c0-.988-.323-1.8145-.969-2.4795s-1.463-.9975-2.451-.9975-1.805.3325-2.451.9975-.969 1.4915-.969 2.4795v35.226c0 .988.323 1.8145.969 2.4795s1.463.9975 2.451.9975zm38.527.57c1.786 0 3.4865-.3895 5.1015-1.1685s2.8975-1.7195 3.8475-2.8215c.038.988.3705 1.805.9975 2.451s1.4345.969 2.4225.969 1.805-.3325 2.451-.9975.969-1.4915.969-2.4795v-24.111c0-1.026-.323-1.862-.969-2.508s-1.463-.969-2.451-.969-1.805.3325-2.451.9975-.969 1.4915-.969 2.4795v.057c-1.102-1.026-2.451-1.8715-4.047-2.5365s-3.306-.9975-5.13-.9975c-2.546 0-4.8735.6745-6.9825 2.0235s-3.7715 3.23-4.9875 5.643-1.824 5.1395-1.824 8.1795.6175 5.757 1.8525 8.151 2.9165 4.2655 5.0445 5.6145 4.503 2.0235 7.125 2.0235zm.855-6.27c-2.47 0-4.4745-.9025-6.0135-2.7075s-2.3085-4.0755-2.3085-6.8115.779-5.016 2.337-6.84 3.553-2.736 5.985-2.736c2.47 0 4.484.912 6.042 2.736s2.337 4.104 2.337 6.84-.779 5.0065-2.337 6.8115-3.572 2.7075-6.042 2.7075zm24.106 5.643c1.102 0 1.9475-.2945 2.5365-.8835s.8835-1.4345.8835-2.5365v-.969c0-1.102-.2945-1.9475-.8835-2.5365s-1.4345-.8835-2.5365-.8835h-.741c-1.102 0-1.9475.2945-2.5365.8835s-.8835 1.4345-.8835 2.5365v.969c0 1.102.2945 1.9475.8835 2.5365s1.4345.8835 2.5365.8835zm13.126.057c.988 0 1.805-.3325 2.451-.9975s.969-1.4915.969-2.4795v-20.178h5.187c.912 0 1.672-.2945 2.28-.8835s.912-1.3395.912-2.2515-.304-1.6625-.912-2.2515-1.368-.8835-2.28-.8835h-5.187v-2.679c0-.874.266-1.6815.798-2.4225s1.444-1.1115 2.736-1.1115c.608 0 1.368.114 2.28.342.228.038.4465.076.6555.114s.4085.057.5985.057c.76 0 1.406-.285 1.938-.855s.798-1.311.798-2.223c0-1.178-.5225-2.052-1.5675-2.622s-2.2705-.855-3.6765-.855c-3.686 0-6.5075.893-8.4645 2.679s-2.9355 4.104-2.9355 6.954v2.622h-3.078c-.912 0-1.672.2945-2.28.8835s-.912 1.3395-.912 2.2515.304 1.6625.912 2.2515 1.368.8835 2.28.8835h3.078v20.178c0 .988.323 1.8145.969 2.4795s1.463.9975 2.451.9975zm19.038-34.2c1.33 0 2.2705-.1995 2.8215-.5985s.8265-1.1495.8265-2.2515v-1.083c0-1.064-.266-1.805-.798-2.223s-1.463-.627-2.793-.627c-1.254 0-2.166.209-2.736.627s-.855 1.159-.855 2.223v1.083c0 1.064.266 1.805.798 2.223s1.444.627 2.736.627zm.057 34.2c.988 0 1.805-.3325 2.451-.9975s.969-1.4915.969-2.4795v-23.541c0-.988-.323-1.8145-.969-2.4795s-1.463-.9975-2.451-.9975-1.805.3325-2.451.9975-.969 1.4915-.969 2.4795v23.541c0 .988.323 1.8145.969 2.4795s1.463.9975 2.451.9975z"/>
  </g>
</svg>
